<svg width="109" height="29" viewBox="0 0 109 29" fill="none" xmlns="http://www.w3.org/2000/svg">
<path d="M31.1449 11.3639C32.1539 11.6981 33.1438 12.0896 34.105 12.5384L35.0136 10.0509C33.1677 9.12943 31.5132 8.4992 30.0116 8.09815C27.7354 3.49557 22.9869 0.320557 17.5068 0.320557C10.7116 0.320557 5.04019 5.20005 3.81601 11.636C2.82614 11.3066 1.8554 10.9199 0.908574 10.4758L0 12.9633C1.28157 13.6031 2.46749 14.0996 3.57213 14.4768C3.58647 15.3983 3.69168 16.3007 3.87817 17.1696C2.8644 16.8354 1.87453 16.4391 0.903792 15.9856L0 18.4826C1.86018 19.4136 3.52431 20.0438 5.03063 20.4449C7.31641 25.014 12.0506 28.1604 17.5068 28.1604C24.2828 28.1604 29.9447 23.3048 31.188 16.8927C32.1826 17.2221 33.1534 17.6136 34.105 18.0577L35.0136 15.5702C33.7368 14.9304 32.5508 14.4339 31.4414 14.0567C31.4319 13.1495 31.3314 12.2472 31.1449 11.3639ZM17.5068 3.32369C21.0024 3.32369 24.1155 4.97088 26.1191 7.52999C18.511 7.42017 15.1875 13.7272 6.74257 12.3617C7.6368 7.23397 12.1223 3.32369 17.5068 3.32369ZM6.62781 15.2694C15.7661 16.8211 18.927 9.4159 27.8071 10.5856C28.1132 11.4355 28.3092 12.3331 28.3953 13.2593C19.257 11.7029 16.0961 19.1033 7.23033 17.9431C6.91472 17.0837 6.71388 16.1861 6.62781 15.2694ZM17.5068 25.1525C14.0351 25.1525 10.9364 23.5292 8.93271 20.9987C16.5121 21.0894 19.8356 14.811 28.2614 16.167C27.3481 21.2661 22.8769 25.1525 17.5068 25.1525Z" fill="#4D774A"/>
<path d="M45.1996 8.61844L41.6035 18.874H45.5391L46.2277 16.6586H49.312L50.015 18.874H54.1562L50.498 8.61844H45.1996ZM47.7962 11.0486L48.8673 14.2571H46.682L47.7388 11.0486H47.7962ZM63.0028 8.7951C61.8838 8.55637 60.7409 8.43701 59.5981 8.44179C55.2369 8.44179 54.2996 10.3325 54.2996 11.7696C54.2996 14.2905 56.5615 14.7154 58.0439 15.021C58.809 15.1833 59.7176 15.2549 59.7176 15.8708C59.7176 16.5011 58.6608 16.587 57.9578 16.587C57.121 16.587 55.9016 16.482 54.4192 15.8995V18.5684C56.0498 18.9838 57.6327 19.0554 58.6608 19.0554C63.1511 19.0554 63.6819 16.7684 63.6819 15.6083C63.6819 13.03 61.3626 12.6624 59.5407 12.3091C58.8808 12.1897 58.2639 12.0752 58.2639 11.5929C58.2639 10.9197 59.1725 10.9054 59.9519 10.9054C61.3769 10.9054 62.3429 11.1823 63.0028 11.4354V8.7951ZM73.1167 8.7951C71.9977 8.55637 70.8548 8.43701 69.7119 8.44179C65.3555 8.44179 64.4135 10.3325 64.4135 11.7696C64.4135 14.2905 66.6754 14.7154 68.1578 15.021C68.9229 15.1833 69.8315 15.2549 69.8315 15.8708C69.8315 16.5011 68.7746 16.587 68.0717 16.587C67.2349 16.587 66.0155 16.482 64.533 15.8995V18.5684C66.1637 18.9838 67.7465 19.0554 68.7746 19.0554C73.2649 19.0554 73.7957 16.7684 73.7957 15.6083C73.7957 13.03 71.4765 12.6624 69.6593 12.3091C68.9994 12.1897 68.3825 12.0752 68.3825 11.5929C68.3825 10.9197 69.2911 10.9054 70.0706 10.9054C71.4956 10.9054 72.4615 11.1823 73.1215 11.4354L73.1167 8.7951ZM74.9673 8.61844V18.8788H78.9029V8.61844H74.9673ZM88.7776 8.7951C87.6586 8.55637 86.5157 8.43701 85.3729 8.44179C81.0165 8.44179 80.0744 10.3325 80.0744 11.7696C80.0744 14.2905 82.3363 14.7154 83.8187 15.021C84.5838 15.1833 85.4924 15.2549 85.4924 15.8708C85.4924 16.5011 84.4356 16.587 83.7279 16.587C82.891 16.587 81.6716 16.482 80.1892 15.8995V18.5684C81.8199 18.9838 83.4027 19.0554 84.4308 19.0554C88.9211 19.0554 89.4519 16.7684 89.4519 15.6083C89.4519 13.03 87.1326 12.6624 85.3107 12.3091C84.6508 12.1897 84.0339 12.0752 84.0339 11.5929C84.0339 10.9197 84.9425 10.9054 85.7219 10.9054C87.147 10.9054 88.1129 11.1823 88.7776 11.4354V8.7951ZM89.9683 8.61844V11.6502H93.4305V18.874H97.366V11.6502H100.828V8.61844H89.9683ZM104.324 8.67574V8.87626H105.06V11.125H105.29V8.87626H106.021V8.67574H104.324ZM107.705 10.9006L107.604 10.576L106.791 8.67574H106.428V11.1203H106.657V9.2248L106.648 8.89059H106.662L106.782 9.21048L107.595 11.1155H107.834L108.647 9.21048L108.766 8.89059H108.781L108.771 9.2248V11.1203H109.001V8.67574H108.637L107.824 10.576L107.724 10.9006H107.705Z" fill="white"/>
</svg>
