<svg width="81" height="20" viewBox="0 0 81 20" fill="none" xmlns="http://www.w3.org/2000/svg">
<path fill-rule="evenodd" clip-rule="evenodd" d="M1.90116 0.727539H15.1918C16.2383 0.727539 17.093 1.58219 17.093 2.6287V15.9194C17.093 16.9659 16.2383 17.8205 15.1918 17.8205H1.90116C0.85465 17.8205 0 16.9659 0 15.9194V2.6287C0 1.58219 0.85465 0.727539 1.90116 0.727539Z" fill="#0062A4"/>
<path fill-rule="evenodd" clip-rule="evenodd" d="M11.5819 13.4427H9.54123C9.48891 13.4427 9.43658 13.3904 9.43658 13.338V12.8322L7.9017 14.3671C7.86682 14.402 7.79705 14.402 7.74473 14.3671L6.29705 12.9194C6.26217 12.8846 6.26217 12.8148 6.29705 12.7625L6.64589 12.4136H4.50054C4.44822 12.4136 4.39589 12.3613 4.39589 12.309V10.2683C4.39589 10.216 4.44822 10.1636 4.50054 10.1636H5.00636L3.47148 8.62875C3.43659 8.59387 3.43659 8.5241 3.47148 8.47178L4.91915 7.0241C4.95403 6.98922 5.0238 6.98922 5.07612 7.0241L5.42496 7.37294V5.22759C5.42496 5.17527 5.47729 5.12294 5.52961 5.12294H7.57031C7.62263 5.12294 7.67496 5.17527 7.67496 5.22759V5.73341L9.20984 4.19853C9.24472 4.16364 9.31449 4.16364 9.36682 4.19853L10.8145 5.6462C10.8494 5.68108 10.8494 5.75085 10.8145 5.80318L10.4657 6.15201H12.6284C12.6808 6.15201 12.7331 6.20434 12.7331 6.25666V8.29736C12.7331 8.34968 12.6808 8.40201 12.6284 8.40201H12.1226L13.6575 9.93689C13.6924 9.97177 13.6924 10.0415 13.6575 10.0939L12.2098 11.5415C12.175 11.5764 12.1052 11.5764 12.0529 11.5415L11.704 11.1927V13.3555C11.6866 13.3904 11.6343 13.4427 11.5819 13.4427ZM11.3203 7.75666L10.518 8.38457H9.54123C9.48891 8.38457 9.43658 8.33224 9.43658 8.27992V6.25666L9.31449 7.26829L8.61682 7.96596C8.58193 8.00085 8.51217 8.00085 8.45984 7.96596L7.65752 7.16364L7.02961 6.53573L7.65752 7.33806V8.3148C7.65752 8.36713 7.60519 8.41945 7.55286 8.41945H5.51217L6.5238 8.54154L7.22147 9.23922C7.25635 9.2741 7.25635 9.34387 7.22147 9.39619L5.7738 10.8439L6.57612 10.216H7.55286C7.60519 10.216 7.65752 10.2683 7.65752 10.3206V12.3613L7.77961 11.3497L8.47728 10.652C8.51217 10.6171 8.58193 10.6171 8.63426 10.652L10.0819 12.0997L9.45403 11.2974V10.3206C9.45403 10.2683 9.50635 10.216 9.55868 10.216H11.5994L10.5877 10.0939L9.89007 9.39619C9.85519 9.36131 9.85519 9.29154 9.89007 9.23922L10.6924 8.43689L11.3203 7.75666Z" fill="white"/>
<path fill-rule="evenodd" clip-rule="evenodd" d="M26.2328 7.58218C26.2502 8.38451 25.6223 8.96009 24.8374 8.96009H22.7444V6.2566H24.8549C25.5874 6.2566 26.1979 6.77986 26.2328 7.58218ZM78.1048 2.64614V10.6345C78.1048 10.774 77.9827 10.8612 77.8432 10.8612H76.1688C76.0292 10.8612 75.9071 10.7566 75.9071 10.6345V2.64614H73.2734C73.1339 2.64614 73.0467 2.52405 73.0467 2.38451V1.00661C73.0467 0.867074 73.1339 0.744981 73.2734 0.744981C75.7676 0.744981 78.2618 0.744981 80.7734 0.744981C80.9129 0.744981 81.0001 0.867074 81.0001 1.00661V2.38451C81.0001 2.52405 80.8955 2.64614 80.7734 2.64614H78.1048ZM36.1572 10.5299V9.20427C36.1572 9.09962 36.0874 8.96009 35.913 8.96009H31.9886C31.7444 8.96009 31.2735 8.78567 31.2735 8.19265V6.27404H35.4421C35.6165 6.27404 35.6863 6.11707 35.6863 6.02986V4.66939C35.6863 4.52986 35.5816 4.42521 35.4072 4.42521H31.256V3.34381C31.256 2.89033 31.6397 2.6287 31.9711 2.6287H35.8781C36.0525 2.6287 36.1397 2.48916 36.1397 2.38451V0.989167C36.1397 0.849632 36.0351 0.744981 35.8607 0.744981L31.8142 0.727539C30.2793 0.727539 29.0932 2.00079 29.0932 3.41358V8.21009C29.0932 9.6752 30.3316 10.8612 31.7618 10.8612H35.913C36.0525 10.8612 36.1572 10.7566 36.1572 10.6171C36.1572 10.5996 36.1572 10.5647 36.1572 10.5299ZM52.7793 5.48916V5.41939C53.0932 5.22753 53.3548 4.98335 53.5467 4.68684C53.756 4.39033 53.913 4.02405 54.0002 3.62288L54.663 1.04149C54.6804 0.919399 54.6106 0.762423 54.4188 0.762423H52.849C52.7967 0.762423 52.7444 0.762423 52.6746 0.797306C52.6223 0.814748 52.57 0.884516 52.5525 0.971725L51.9072 3.39614C51.8374 3.69265 51.7327 3.9194 51.5932 4.09381C51.4711 4.26823 51.3316 4.40777 51.1746 4.47753C51.0176 4.56474 50.8607 4.61707 50.7037 4.65195C50.5467 4.66939 50.3897 4.68684 50.2502 4.68684H49.1165V0.989167C49.1165 0.83219 48.9769 0.744981 48.8723 0.744981H47.1804C47.0409 0.744981 46.9188 0.849632 46.9188 0.971725V10.6345C46.9188 10.774 47.0409 10.8612 47.1804 10.8612H48.8548C48.9944 10.8612 49.1165 10.774 49.1165 10.6345V6.34381H50.2851C50.6165 6.34381 50.8955 6.37869 51.1397 6.43102C51.3665 6.50079 51.5583 6.62288 51.7153 6.7973C51.8723 6.97172 51.9944 7.23334 52.099 7.5473L52.9886 10.6868C53.0409 10.8089 53.1281 10.8612 53.2153 10.8612H54.8897C55.099 10.8787 55.1688 10.6694 55.1339 10.5647L54.2444 7.2159C54.192 7.0066 54.1223 6.7973 54.07 6.62288C54.0002 6.44846 53.913 6.29149 53.8083 6.15195C53.7037 6.01242 53.5641 5.89032 53.4072 5.76823C53.2327 5.66358 53.0234 5.57637 52.7793 5.48916ZM58.849 6.97172L59.3897 5.14032L59.9304 3.08219H60.0176L60.5583 5.14032L61.099 6.97172H58.849ZM61.6397 8.75078L62.1978 10.6345C62.2502 10.8089 62.3374 10.8612 62.442 10.8612H64.2734C64.4478 10.8612 64.5525 10.7217 64.5176 10.5473L61.5176 1.52986C61.3781 1.09382 61.1688 0.744981 60.663 0.744981H59.3723C59.1106 0.727539 58.8839 0.814748 58.7095 1.04149C58.6223 1.16358 58.5351 1.32056 58.4827 1.52986L55.4827 10.5299C55.413 10.7217 55.5874 10.8612 55.7095 10.8612H57.4711C57.5234 10.8612 57.6455 10.8612 57.7153 10.7043C57.7327 10.6694 57.7502 10.6171 57.7676 10.5822L58.3258 8.75078H61.6397ZM70.6223 3.95428C70.6223 4.65195 70.0641 5.27986 69.2967 5.27986H67.3257V2.64614H69.2095C70.0641 2.61126 70.6223 3.25661 70.6223 3.95428ZM67.3257 10.5647V7.18102H69.7327C71.3897 7.18102 72.942 5.82056 72.9246 3.90195C72.9246 3.44847 72.8025 3.01242 72.6455 2.6287C72.2443 1.73917 71.5292 1.14614 70.6571 0.884516C70.3083 0.779865 69.9246 0.744981 69.5409 0.744981H65.8781C65.4944 0.744981 65.163 1.00661 65.1455 1.44265C65.1455 1.49498 65.1455 1.56475 65.1455 1.63451V10.6345C65.1455 10.774 65.2502 10.8787 65.3897 10.8787H67.099C67.1862 10.8787 67.2734 10.8264 67.3083 10.7566C67.3257 10.6868 67.3257 10.6345 67.3257 10.5647ZM21.2444 10.8612H25.0293C26.8956 10.931 28.4304 9.62288 28.5002 7.68683C28.5002 7.51241 28.5177 7.32055 28.4653 7.11125C28.1339 5.52404 26.8781 4.42521 25.2735 4.42521H22.727V2.6287H27.0874C27.2444 2.6287 27.3491 2.50661 27.3491 2.34963V1.05893C27.3491 0.884516 27.2793 0.744981 27.0874 0.744981H21.2967C20.7037 0.744981 20.5293 1.18103 20.5293 1.4601V10.1461C20.5293 10.5473 20.8433 10.8612 21.2444 10.8612ZM38.5642 1.72172L38.4421 3.9194C38.4072 4.66939 38.3549 5.31474 38.3025 5.87288C38.2153 6.77986 38.1281 8.97753 36.9421 8.97753C36.9246 8.97753 36.9072 8.97753 36.8897 8.97753C36.7851 8.97753 36.6456 9.06474 36.6456 9.22171V10.5647C36.6456 10.5996 36.6456 10.6171 36.6456 10.6345C36.6456 10.7915 36.7502 10.8961 36.8897 10.8961C36.9072 10.8961 36.977 10.8961 36.9944 10.8961C37.8839 10.8961 38.6688 10.7915 39.349 9.77985C39.5583 9.4659 39.7502 9.09962 39.8723 8.69846C40.0118 8.2973 40.1165 7.82637 40.1862 7.338C40.256 6.83218 40.3258 6.27404 40.3781 5.68102C40.4304 5.07056 40.4828 4.42521 40.5176 3.71009L40.57 2.69847H43.3781V10.6694C43.3781 10.8089 43.5002 10.931 43.6397 10.9136H45.3141C45.4886 10.9136 45.5758 10.7915 45.5758 10.6519V1.4601C45.5758 1.07638 45.2618 0.744981 44.8083 0.744981H39.2618C38.8432 0.744981 38.5816 1.11126 38.5642 1.42521C38.5816 1.51242 38.5642 1.61707 38.5642 1.72172Z" fill="#0062A4"/>
<path fill-rule="evenodd" clip-rule="evenodd" d="M23.7385 14.2973L23.0757 15.3961L21.8373 17.4194C21.785 17.4892 21.7501 17.5415 21.7152 17.5764C21.6803 17.6112 21.6454 17.6461 21.6106 17.681C21.5757 17.6985 21.5233 17.7159 21.471 17.7333C21.4187 17.7333 21.3489 17.7508 21.2792 17.7508H20.9826C20.7908 17.7508 20.6687 17.6985 20.5989 17.6112C20.5292 17.524 20.5117 17.4019 20.5117 17.245V12.7275C20.5117 12.6403 20.564 12.588 20.6687 12.588H21.4536C21.5233 12.588 21.5582 12.6054 21.5757 12.6229C21.5931 12.6403 21.5931 12.6752 21.5931 12.7275V16.0415H21.6454L22.2733 15.0124L23.5466 12.9194C23.5989 12.8496 23.6338 12.7973 23.6687 12.745C23.7036 12.6926 23.7385 12.6752 23.7733 12.6403C23.8082 12.6229 23.8606 12.6054 23.9129 12.588C23.9652 12.588 24.0175 12.5706 24.1047 12.5706H24.4012C24.5757 12.5706 24.7152 12.6054 24.785 12.6926C24.8547 12.7624 24.8896 12.902 24.8896 13.0938V17.5938C24.8896 17.681 24.8373 17.7333 24.7326 17.7333H23.9478C23.878 17.7333 23.8431 17.7159 23.8082 17.6985C23.7908 17.681 23.7733 17.6461 23.7733 17.5938V14.2973H23.7385ZM26.9652 17.5938C26.9652 17.6636 26.9478 17.6985 26.9303 17.7159C26.9129 17.7333 26.8605 17.7333 26.7908 17.7333H26.0582C25.9536 17.7333 25.9012 17.681 25.9012 17.5938V14.0182C25.9012 13.931 25.9536 13.8787 26.0582 13.8787H26.7908C26.8605 13.8787 26.9129 13.8787 26.9303 13.8961C26.9478 13.9136 26.9652 13.9485 26.9652 14.0182V15.274H28.3431V14.0182C28.3431 13.931 28.3954 13.8787 28.5001 13.8787H29.2326C29.3024 13.8787 29.3547 13.8787 29.3722 13.8961C29.3896 13.9136 29.4071 13.9485 29.4071 14.0182V17.5938C29.4071 17.6636 29.3896 17.6985 29.3722 17.7159C29.3547 17.7333 29.3024 17.7333 29.2326 17.7333H28.5001C28.3954 17.7333 28.3431 17.681 28.3431 17.5938V16.1112H26.9652V17.5938ZM32.2152 14.7508V17.5938C32.2152 17.6636 32.1977 17.6985 32.1803 17.7159C32.1629 17.7333 32.1105 17.7333 32.0408 17.7333H31.3082C31.2036 17.7333 31.1338 17.681 31.1338 17.5938V14.7508H30.0873C29.9826 14.7508 29.9478 14.6985 29.9478 14.5938V14.0531C29.9478 13.9833 29.9478 13.931 29.9652 13.9136C29.9826 13.8961 30.0175 13.8787 30.0873 13.8787H33.2617C33.314 13.8787 33.3664 13.8961 33.3838 13.9136C33.4012 13.931 33.4187 13.9833 33.4187 14.0531V14.5938C33.4187 14.6985 33.3664 14.7508 33.2791 14.7508H32.2152ZM35.4419 13.7915C36.0175 13.7915 36.4536 13.931 36.7326 14.2275C37.0117 14.5066 37.1687 14.9252 37.1687 15.4659C37.1687 15.7275 37.1163 15.9019 37.0291 15.9892C36.9245 16.0764 36.8024 16.1287 36.628 16.1287H34.7443C34.7443 16.2857 34.7791 16.4078 34.814 16.5124C34.8664 16.6171 34.9187 16.7043 35.0059 16.7566C35.0931 16.8264 35.1803 16.8612 35.285 16.8961C35.3896 16.9136 35.5117 16.931 35.6338 16.931C35.7733 16.931 35.9129 16.9136 36.0698 16.8787C36.2094 16.8438 36.3489 16.8089 36.4884 16.7392C36.5408 16.7217 36.5931 16.7217 36.6105 16.7217C36.628 16.7217 36.6454 16.7566 36.6803 16.7915L36.907 17.3147C36.9245 17.3671 36.9245 17.4019 36.9245 17.4194C36.907 17.4368 36.8896 17.4717 36.8547 17.4892C36.6803 17.6112 36.471 17.6985 36.2268 17.7508C35.9826 17.8031 35.7559 17.8205 35.564 17.8205C34.9187 17.8205 34.4477 17.6636 34.1338 17.3496C33.8198 17.0357 33.6629 16.5299 33.6629 15.8322C33.6629 15.5008 33.6977 15.2217 33.785 14.9601C33.8722 14.7159 33.9943 14.4892 34.1512 14.3147C34.3082 14.1403 34.5001 14.0008 34.7268 13.9136C34.9012 13.8438 35.1629 13.7915 35.4419 13.7915ZM35.4594 14.681C35.2501 14.681 35.0931 14.7508 34.971 14.8903C34.8489 15.0299 34.7617 15.2217 34.7443 15.431H36.1222C36.1222 15.3264 36.1047 15.2217 36.0873 15.1345C36.0698 15.0473 36.035 14.9601 35.9826 14.8903C35.9303 14.8206 35.8605 14.7682 35.7908 14.7333C35.7036 14.6985 35.5989 14.681 35.4594 14.681ZM39.0001 19.1287C39.0001 19.181 39.0001 19.2159 38.9826 19.2333C38.9652 19.2508 38.9303 19.2508 38.8605 19.2508H38.0931C38.0408 19.2508 38.0059 19.2508 37.971 19.2333C37.9536 19.2159 37.9361 19.181 37.9361 19.1287V14.3322C37.9361 14.2799 37.9361 14.2275 37.9536 14.2101C37.971 14.1752 38.0059 14.1403 38.0756 14.1054C38.3024 14.0008 38.5815 13.9136 38.8605 13.8787C39.157 13.8264 39.4361 13.8089 39.6977 13.8089C40.0466 13.8089 40.3431 13.8613 40.5698 13.9659C40.814 14.0706 41.0059 14.2101 41.1454 14.3845C41.2849 14.5589 41.3896 14.7682 41.4594 15.0124C41.5291 15.2566 41.5466 15.5182 41.5466 15.7973C41.5466 16.0764 41.5117 16.338 41.4419 16.5647C41.3722 16.8089 41.2675 17.0182 41.128 17.1926C40.9884 17.3671 40.7966 17.524 40.5873 17.6287C40.3605 17.7333 40.1163 17.7857 39.8198 17.7857C39.6803 17.7857 39.5408 17.7857 39.4187 17.7682C39.2966 17.7508 39.157 17.7333 39.0001 17.6985V19.1287ZM40.4477 15.7973C40.4477 15.588 40.4303 15.431 40.3954 15.2915C40.3605 15.1519 40.2908 15.0473 40.221 14.9601C40.1512 14.8729 40.0466 14.8206 39.9419 14.7857C39.8373 14.7508 39.7152 14.7333 39.5756 14.7333C39.5059 14.7333 39.4187 14.7333 39.314 14.7508C39.2094 14.7682 39.1047 14.7857 39.0175 14.8031V16.8089C39.1396 16.8438 39.2617 16.8612 39.3663 16.8787C39.471 16.8961 39.5582 16.8961 39.6454 16.8961C39.8896 16.8961 40.0989 16.8089 40.2559 16.6519C40.378 16.4775 40.4477 16.1985 40.4477 15.7973ZM43.4477 17.5938C43.4477 17.6636 43.4303 17.6985 43.4128 17.7159C43.3954 17.7333 43.3431 17.7333 43.2733 17.7333H42.5408C42.4361 17.7333 42.3838 17.681 42.3838 17.5938V14.0182C42.3838 13.931 42.4361 13.8787 42.5408 13.8787H43.2733C43.3431 13.8787 43.3954 13.8787 43.4128 13.8961C43.4303 13.9136 43.4477 13.9485 43.4477 14.0182V15.274H44.8256V14.0182C44.8256 13.931 44.878 13.8787 44.9826 13.8787H45.7152C45.7849 13.8787 45.8373 13.8787 45.8547 13.8961C45.8721 13.9136 45.8896 13.9485 45.8896 14.0182V17.5938C45.8896 17.6636 45.8721 17.6985 45.8547 17.7159C45.8373 17.7333 45.7849 17.7333 45.7152 17.7333H44.9826C44.878 17.7333 44.8256 17.681 44.8256 17.5938V16.1112H43.4477V17.5938ZM48.5233 13.7915C49.0989 13.7915 49.5349 13.931 49.814 14.2275C50.0931 14.5066 50.25 14.9252 50.25 15.4659C50.25 15.7275 50.1977 15.9019 50.1105 15.9892C50.0059 16.0764 49.8838 16.1287 49.7094 16.1287H47.8256C47.8256 16.2857 47.8605 16.4078 47.8954 16.5124C47.9477 16.6171 48.0001 16.7043 48.0873 16.7566C48.157 16.8264 48.2617 16.8612 48.3663 16.8961C48.471 16.9136 48.5931 16.931 48.7152 16.931C48.8547 16.931 48.9942 16.9136 49.1512 16.8787C49.2907 16.8438 49.4303 16.8089 49.5698 16.7392C49.6221 16.7217 49.6745 16.7217 49.6919 16.7217C49.7094 16.7217 49.7268 16.7566 49.7617 16.7915L49.9884 17.3147C50.0059 17.3671 50.0059 17.4019 50.0059 17.4194C49.9884 17.4368 49.971 17.4717 49.9361 17.4892C49.7617 17.6112 49.5524 17.6985 49.3082 17.7508C49.064 17.8031 48.8373 17.8205 48.6454 17.8205C48 17.8205 47.5291 17.6636 47.2152 17.3496C46.9012 17.0357 46.7442 16.5299 46.7442 15.8322C46.7442 15.5008 46.7791 15.2217 46.8663 14.9601C46.9535 14.7159 47.0756 14.4892 47.2326 14.3147C47.3896 14.1403 47.5814 14.0008 47.8082 13.9136C47.9826 13.8438 48.2442 13.7915 48.5233 13.7915ZM48.5407 14.681C48.3314 14.681 48.1745 14.7508 48.0524 14.8903C47.9303 15.0299 47.8431 15.2217 47.8256 15.431H49.2035C49.2035 15.3264 49.1861 15.2217 49.1687 15.1345C49.1512 15.0473 49.1163 14.9601 49.064 14.8903C49.0117 14.8206 48.9419 14.7682 48.8721 14.7333C48.7849 14.6985 48.6803 14.681 48.5407 14.681ZM52.8663 14.7508V17.5938C52.8663 17.6636 52.8489 17.6985 52.8314 17.7159C52.814 17.7333 52.7617 17.7333 52.6919 17.7333H51.9768C51.8721 17.7333 51.8024 17.681 51.8024 17.5938V14.7508H50.7559C50.6512 14.7508 50.6163 14.6985 50.6163 14.5938V14.0531C50.6163 13.9833 50.6163 13.931 50.6338 13.9136C50.6512 13.8961 50.6861 13.8787 50.7559 13.8787H53.9303C53.9826 13.8787 54.0349 13.8961 54.0524 13.9136C54.0698 13.931 54.0873 13.9833 54.0873 14.0531V14.5938C54.0873 14.6985 54.0349 14.7508 53.9477 14.7508H52.8663ZM58.9361 17.6112C58.9361 17.6636 58.9186 17.6985 58.9012 17.7159C58.8838 17.7333 58.8314 17.7508 58.7617 17.7508H57.9593C57.8547 17.7508 57.8024 17.6985 57.8024 17.6112V13.5647H55.814V17.6112C55.814 17.6636 55.7966 17.6985 55.7791 17.7159C55.7617 17.7333 55.7093 17.7508 55.6396 17.7508H54.8372C54.7326 17.7508 54.6803 17.6985 54.6803 17.6112V13.0938C54.6803 12.9194 54.7152 12.7973 54.7849 12.7101C54.8547 12.6229 54.9768 12.588 55.1512 12.588H58.4477C58.6221 12.588 58.7442 12.6229 58.814 12.7101C58.8838 12.7973 58.9186 12.9194 58.9186 13.0938V17.6112H58.9361ZM63.2442 17.2624C63.2442 17.3322 63.2442 17.3845 63.2268 17.4194C63.2093 17.4717 63.1744 17.5066 63.1047 17.5415C63 17.5938 62.8779 17.6461 62.7384 17.681C62.6163 17.7159 62.4768 17.7508 62.3372 17.7682C62.1977 17.7857 62.0582 17.8031 61.9361 17.8205C61.7965 17.838 61.6744 17.838 61.5524 17.838C61.221 17.838 60.9419 17.8031 60.7326 17.7508C60.5233 17.681 60.3489 17.5938 60.2093 17.4892C60.0698 17.3845 59.9826 17.245 59.9303 17.1054C59.8779 16.9485 59.8431 16.7915 59.8431 16.6171C59.8431 16.4252 59.8779 16.2508 59.9303 16.0938C60 15.9368 60.0872 15.7973 60.2093 15.6752C60.3314 15.5531 60.5058 15.4659 60.6977 15.3961C60.8896 15.3264 61.1163 15.2915 61.3779 15.2915H62.1803V15.1694C62.1803 15.0996 62.1803 15.0299 62.1628 14.9775C62.1454 14.9078 62.1105 14.8554 62.0756 14.8206C62.0233 14.7682 61.971 14.7333 61.8838 14.6985C61.7965 14.6636 61.6919 14.6461 61.5524 14.6461C61.4826 14.6461 61.3954 14.6461 61.3082 14.6636C61.221 14.6636 61.1163 14.681 61.0291 14.6985C60.9419 14.7159 60.8372 14.7333 60.75 14.7508C60.6628 14.7682 60.5756 14.7857 60.5233 14.8031C60.4535 14.8206 60.4186 14.8206 60.3838 14.8031C60.3663 14.7857 60.3489 14.7508 60.3314 14.7159L60.2093 14.1926C60.1919 14.1403 60.1919 14.1054 60.2093 14.0706C60.2268 14.0531 60.2442 14.0357 60.2791 14.0182C60.5058 13.9485 60.7326 13.8787 60.9768 13.8438C61.221 13.8089 61.4651 13.7915 61.7093 13.7915C62.25 13.7915 62.6338 13.9136 62.8779 14.1403C63.1221 14.3671 63.2442 14.6985 63.2442 15.1519V17.2624ZM62.1803 15.9892H61.6047C61.5349 15.9892 61.4651 15.9892 61.3779 16.0066C61.3082 16.024 61.221 16.0415 61.1686 16.0764C61.0989 16.1112 61.0465 16.1636 61.0117 16.2333C60.9593 16.3031 60.9419 16.3903 60.9419 16.5124C60.9419 16.6868 60.9942 16.8089 61.1163 16.8787C61.2384 16.9485 61.3954 16.9833 61.5872 16.9833C61.6221 16.9833 61.657 16.9833 61.7093 16.9833C61.7617 16.9833 61.814 16.9833 61.8663 16.9659C61.9186 16.9659 61.9884 16.9485 62.0407 16.931C62.0931 16.9136 62.1454 16.8961 62.1977 16.8787V15.9892H62.1803ZM65.2675 19.1287C65.2675 19.181 65.2675 19.2159 65.25 19.2333C65.2326 19.2508 65.1977 19.2508 65.1279 19.2508H64.3605C64.3082 19.2508 64.2733 19.2508 64.2384 19.2333C64.221 19.2159 64.2035 19.181 64.2035 19.1287V14.3322C64.2035 14.2799 64.2035 14.2275 64.221 14.2101C64.2384 14.1752 64.2733 14.1403 64.3431 14.1054C64.5698 14.0008 64.8489 13.9136 65.1279 13.8787C65.4244 13.8264 65.7035 13.8089 65.9651 13.8089C66.314 13.8089 66.6105 13.8613 66.8372 13.9659C67.0814 14.0706 67.2733 14.2101 67.4128 14.3845C67.5523 14.5589 67.657 14.7682 67.7268 15.0124C67.7965 15.2566 67.814 15.5182 67.814 15.7973C67.814 16.0764 67.7791 16.338 67.7093 16.5647C67.6396 16.8089 67.5349 17.0182 67.3954 17.1926C67.2558 17.3671 67.064 17.524 66.8547 17.6287C66.6279 17.7333 66.3837 17.7857 66.0872 17.7857C65.9477 17.7857 65.8082 17.7857 65.6861 17.7682C65.564 17.7508 65.4244 17.7333 65.2675 17.6985V19.1287ZM66.7326 15.7973C66.7326 15.588 66.7151 15.431 66.6803 15.2915C66.6454 15.1519 66.5756 15.0473 66.5058 14.9601C66.4361 14.8729 66.3314 14.8206 66.2268 14.7857C66.1221 14.7508 66 14.7333 65.8605 14.7333C65.7907 14.7333 65.7035 14.7333 65.5989 14.7508C65.4942 14.7682 65.3896 14.7857 65.3024 14.8031V16.8089C65.4244 16.8438 65.5465 16.8612 65.6512 16.8787C65.7558 16.8961 65.843 16.8961 65.9303 16.8961C66.1744 16.8961 66.3837 16.8089 66.5407 16.6519C66.6454 16.4775 66.7326 16.1985 66.7326 15.7973ZM72.2268 15.7973C72.2268 16.4426 72.0698 16.9485 71.7558 17.2973C71.4419 17.6461 70.9709 17.8205 70.343 17.8205C69.6977 17.8205 69.2442 17.6461 68.9477 17.2973C68.6512 16.9485 68.5117 16.4426 68.5117 15.8147C68.5117 15.5008 68.5465 15.2217 68.6337 14.9601C68.721 14.7159 68.843 14.4892 69 14.3322C69.157 14.1578 69.3489 14.0357 69.5756 13.931C69.8023 13.8438 70.064 13.7915 70.343 13.7915C70.9535 13.7915 71.4244 13.9659 71.7384 14.3322C72.0698 14.681 72.2268 15.1694 72.2268 15.7973ZM71.1105 15.8147C71.1105 15.6403 71.093 15.5008 71.0756 15.3613C71.0582 15.2217 71.0058 15.0996 70.9535 15.0124C70.9012 14.9078 70.814 14.838 70.7268 14.7857C70.6396 14.7333 70.5175 14.6985 70.3779 14.6985C70.1163 14.6985 69.9244 14.8031 69.8023 14.995C69.6803 15.1868 69.6105 15.4659 69.6105 15.7973C69.6105 16.1636 69.6628 16.4426 69.7849 16.6345C69.907 16.8264 70.0989 16.9136 70.3605 16.9136C70.5 16.9136 70.6221 16.8787 70.7093 16.8264C70.7965 16.774 70.8837 16.6868 70.9361 16.5996C71.0058 16.495 71.0407 16.3903 71.0756 16.2508C71.093 16.1287 71.1105 15.9717 71.1105 15.8147ZM76.0116 13.8787C76.1861 13.8787 76.3081 13.9136 76.3605 13.9833C76.4302 14.0531 76.4477 14.1752 76.4477 14.3322V17.6112C76.4477 17.6636 76.4302 17.7159 76.4128 17.7333C76.3954 17.7508 76.343 17.7508 76.2733 17.7508H75.5233C75.4535 17.7508 75.4012 17.7333 75.3837 17.7159C75.3663 17.6985 75.3489 17.6636 75.3489 17.5938V14.7508H74.4768L74.4593 15.1345C74.4419 15.5531 74.407 15.9368 74.3721 16.2333C74.3372 16.5473 74.2675 16.8089 74.1802 17.0182C74.093 17.245 73.9535 17.4194 73.7791 17.5589C73.6047 17.6985 73.3779 17.8031 73.0989 17.8903C73.0291 17.9078 72.9768 17.9252 72.9593 17.9078C72.9244 17.8903 72.907 17.8554 72.8895 17.8031L72.6977 17.2973C72.6802 17.2275 72.6628 17.1926 72.6803 17.1578C72.6803 17.1229 72.7151 17.1054 72.7849 17.0705C72.9244 17.0182 73.0291 16.9485 73.0989 16.8787C73.1861 16.8089 73.2384 16.7043 73.2907 16.5647C73.343 16.4252 73.3779 16.2508 73.4128 16.024C73.4477 15.7973 73.4651 15.5008 73.5 15.1171L73.5523 14.3147C73.5698 14.1578 73.6047 14.0357 73.6744 13.9833C73.7442 13.9136 73.8489 13.8961 74.0233 13.8961H76.0116V13.8787ZM77.8779 17.7508C77.6861 17.7508 77.564 17.7159 77.4942 17.6287C77.4419 17.5589 77.407 17.4543 77.407 17.3147V14.0182C77.407 13.931 77.4593 13.8787 77.564 13.8787H78.2965C78.3663 13.8787 78.4186 13.8787 78.4361 13.8961C78.4535 13.9136 78.4709 13.9485 78.4709 14.0182V15.0822H79.3779C79.7442 15.0822 80.0233 15.1345 80.2326 15.2392C80.4419 15.3438 80.5988 15.4659 80.7035 15.6054C80.8081 15.745 80.8779 15.9019 80.9128 16.0415C80.9477 16.1985 80.9477 16.3206 80.9477 16.4078C80.9477 16.5996 80.9128 16.774 80.843 16.931C80.7733 17.088 80.6686 17.2275 80.5291 17.3496C80.407 17.4717 80.25 17.5589 80.0756 17.6287C79.9012 17.6985 79.7093 17.7333 79.5 17.7333H77.8779V17.7508ZM79.8663 16.4078C79.8663 16.2682 79.8314 16.1461 79.7442 16.0589C79.657 15.9717 79.5349 15.9194 79.3605 15.9194H78.4884V16.9136H79.343C79.4477 16.9136 79.5349 16.8961 79.6047 16.8612C79.6744 16.8264 79.7267 16.7915 79.7616 16.7392C79.7965 16.6868 79.8314 16.6345 79.8488 16.5822C79.8488 16.5124 79.8663 16.4426 79.8663 16.4078Z" fill="#0062A4"/>
</svg>
