<svg width="41" height="32" viewBox="0 0 41 32" fill="none" xmlns="http://www.w3.org/2000/svg">
<path d="M7.35802 31.6599V29.5542C7.39312 28.8522 6.90177 28.2556 6.19984 28.2205C6.12965 28.2205 6.09455 28.2205 6.02436 28.2205C5.56811 28.1854 5.11186 28.4311 4.83108 28.8171C4.58541 28.4311 4.16425 28.1854 3.708 28.2205C3.32194 28.1854 2.93588 28.396 2.7253 28.7118V28.2907H1.98828V31.6599H2.7253V29.7998C2.65511 29.3787 2.97098 28.9575 3.39213 28.9224C3.42723 28.9224 3.49742 28.9224 3.53252 28.9224C4.02387 28.9224 4.26954 29.2383 4.26954 29.7998V31.6599H5.00657V29.7998C4.93637 29.3787 5.25224 28.9575 5.6734 28.9224C5.70849 28.9224 5.77869 28.9224 5.81378 28.9224C6.30513 28.9224 6.55081 29.2383 6.55081 29.7998V31.6599H7.35802ZM18.273 28.2907H17.0797V27.2729H16.3427V28.2907H15.6759V28.9575H16.3427V30.5018C16.3427 31.2739 16.6585 31.7301 17.5009 31.7301C17.8167 31.7301 18.1326 31.6248 18.4134 31.4845L18.2028 30.8527C17.9922 30.958 17.7816 31.0282 17.5711 31.0282C17.2201 31.0282 17.0797 30.8176 17.0797 30.4667V28.9224H18.273V28.2907ZM24.5201 28.2205C24.1692 28.2205 23.8182 28.396 23.6427 28.7118V28.2907H22.9057V31.6599H23.6427V29.7647C23.6427 29.2032 23.8884 28.8873 24.3446 28.8873C24.485 28.8873 24.6605 28.9224 24.8009 28.9575L25.0115 28.2556C24.836 28.2205 24.6605 28.1854 24.5201 28.2205ZM15.0792 28.5715C14.6581 28.3258 14.2018 28.2205 13.7105 28.2205C12.8681 28.2205 12.3066 28.6417 12.3066 29.3085C12.3066 29.87 12.7278 30.1859 13.4648 30.2912L13.8157 30.3263C14.2018 30.3965 14.4124 30.5018 14.4124 30.6772C14.4124 30.9229 14.1316 31.0984 13.6403 31.0984C13.2542 31.0984 12.833 30.9931 12.5172 30.7474L12.1662 31.309C12.5874 31.5897 13.1138 31.7652 13.6052 31.7301C14.5879 31.7301 15.1494 31.2739 15.1494 30.6421C15.1494 30.0104 14.6932 29.7296 13.9912 29.6244L13.6403 29.5893C13.3244 29.5542 13.0787 29.484 13.0787 29.2734C13.0787 29.0628 13.3244 28.8873 13.7105 28.8873C14.0965 28.8873 14.4475 28.9926 14.7633 29.1681L15.0792 28.5715ZM34.6279 28.2205C34.2769 28.2205 33.9259 28.396 33.7505 28.7118V28.2907H33.0134V31.6599H33.7505V29.7647C33.7505 29.2032 33.9961 28.8873 34.4524 28.8873C34.5928 28.8873 34.7683 28.9224 34.9086 28.9575L35.1192 28.2556C34.9788 28.2205 34.8034 28.1854 34.6279 28.2205ZM25.2221 29.9753C25.187 30.9229 25.924 31.695 26.8365 31.7301C26.9067 31.7301 26.9418 31.7301 27.012 31.7301C27.4331 31.7652 27.8894 31.6248 28.2052 31.3441L27.8543 30.7474C27.6086 30.9229 27.2927 31.0282 26.9769 31.0633C26.3802 31.0282 25.9591 30.5018 25.9942 29.9051C26.0293 29.3787 26.4504 28.9575 26.9769 28.9224C27.2927 28.9224 27.6086 29.0277 27.8543 29.2383L28.2052 28.6417C27.8543 28.3609 27.4331 28.2205 27.012 28.2556C26.0644 28.1854 25.2922 28.9224 25.2221 29.8349C25.2221 29.8349 25.2221 29.9051 25.2221 29.9753ZM32.0658 29.9753V28.2907H31.3288V28.7118C31.0831 28.396 30.6971 28.2205 30.2759 28.2205C29.2932 28.2205 28.5211 28.9926 28.5211 29.9753C28.5211 30.958 29.2932 31.7301 30.2759 31.7301C30.6971 31.7301 31.0831 31.5547 31.3288 31.2388V31.6599H32.0658V29.9753ZM29.3634 29.9753C29.3985 29.4138 29.8899 28.9926 30.4514 29.0277C31.013 29.0628 31.4341 29.5542 31.399 30.1157C31.3639 30.6421 30.9428 31.0633 30.3812 31.0633C29.8197 31.0633 29.3634 30.6421 29.3634 30.0806C29.3634 30.0104 29.3634 29.9753 29.3634 29.9753ZM20.5542 28.2205C19.5715 28.2205 18.7994 29.0277 18.8345 30.0104C18.8696 30.9931 19.6417 31.7652 20.6244 31.7301C21.1158 31.7652 21.6422 31.5897 22.0283 31.2739L21.6773 30.7474C21.3966 30.958 21.0456 31.0984 20.6946 31.0984C20.2033 31.1335 19.747 30.7825 19.6768 30.2912H22.1687C22.1687 30.1859 22.1687 30.1157 22.1687 30.0104C22.1687 28.9224 21.5018 28.2205 20.5542 28.2205ZM20.5542 28.8522C21.0105 28.8522 21.3966 29.2032 21.3966 29.6594H19.6417C19.6768 29.2032 20.0629 28.8522 20.5542 28.8522ZM38.8394 29.9753V26.957H38.1375V28.7118C37.8918 28.396 37.5058 28.2205 37.0846 28.2205C36.1019 28.2205 35.3298 28.9926 35.3298 29.9753C35.3298 30.958 36.1019 31.7301 37.0846 31.7301C37.5058 31.7301 37.8918 31.5547 38.1375 31.2388V31.6599H38.8394V29.9753ZM40.0678 31.1686C40.1029 31.1686 40.1731 31.1686 40.2082 31.2037C40.2433 31.2037 40.2784 31.2388 40.3135 31.2739C40.3486 31.309 40.3837 31.3441 40.3837 31.3792C40.4188 31.4494 40.4188 31.5546 40.3837 31.6248C40.3486 31.6599 40.3486 31.695 40.3135 31.7301C40.2784 31.7652 40.2433 31.8003 40.2082 31.8003C40.1731 31.8354 40.138 31.8354 40.0678 31.8354C39.9274 31.8354 39.8221 31.7652 39.7519 31.6248C39.7168 31.5546 39.7168 31.4494 39.7519 31.3792C39.787 31.3441 39.787 31.309 39.8221 31.2739C39.8572 31.2388 39.8923 31.2037 39.9274 31.2037C39.9625 31.1686 40.0327 31.1686 40.0678 31.1686ZM40.0678 31.7652C40.1029 31.7652 40.138 31.7652 40.1731 31.7301C40.2082 31.7301 40.2433 31.695 40.2433 31.6599C40.3486 31.5547 40.3486 31.4143 40.2433 31.309C40.2082 31.2739 40.2082 31.2739 40.1731 31.2388C40.138 31.2388 40.1029 31.2037 40.0678 31.2037C40.0327 31.2037 39.9976 31.2037 39.9625 31.2388C39.9274 31.2388 39.8923 31.2739 39.8923 31.309C39.787 31.4143 39.787 31.5547 39.8923 31.6599C39.9274 31.695 39.9625 31.695 39.9625 31.7301C39.9976 31.7301 40.0327 31.7652 40.0678 31.7652ZM40.0678 31.3441C40.1029 31.3441 40.138 31.3441 40.1731 31.3792C40.2082 31.4143 40.2082 31.4143 40.2082 31.4494C40.2082 31.4845 40.2082 31.4845 40.1731 31.5196C40.138 31.5547 40.138 31.5547 40.1029 31.5547L40.2082 31.6599H40.138L40.0327 31.5547H39.9976V31.6599H39.9274V31.3441H40.0678ZM39.9976 31.3792V31.4494H40.0678H40.1029V31.4143V31.3792H40.0678H39.9976ZM36.137 29.9753C36.1721 29.4138 36.6635 28.9926 37.225 29.0277C37.7865 29.0628 38.2077 29.5542 38.1726 30.1157C38.1375 30.6421 37.7164 31.0633 37.1548 31.0633C36.5933 31.0633 36.137 30.6421 36.137 30.0806C36.137 30.0104 36.137 30.0104 36.137 29.9753ZM11.4994 29.9753V28.2907H10.7624V28.7118C10.5167 28.396 10.1306 28.2205 9.70948 28.2205C8.72678 28.2205 7.95466 28.9926 7.95466 29.9753C7.95466 30.958 8.72678 31.7301 9.70948 31.7301C10.1306 31.7301 10.5167 31.5547 10.7624 31.2388V31.6599H11.4994V29.9753ZM8.76187 29.9753C8.79697 29.4138 9.28832 28.9926 9.84986 29.0277C10.4114 29.0628 10.8326 29.5542 10.7975 30.1157C10.7624 30.6421 10.3412 31.0633 9.77967 31.0633C9.21813 31.0633 8.76187 30.6421 8.76187 30.0806C8.76187 30.0104 8.76187 30.0104 8.76187 29.9753Z" fill="white"/>
<path d="M25.9245 2.74048H14.8691V22.605H25.9245V2.74048Z" fill="#FF5F00"/>
<path d="M15.5709 12.6737C15.5709 8.81314 17.3608 5.12802 20.4141 2.74147C14.9391 -1.57538 6.97225 -0.627776 2.6905 4.88235C-1.59126 10.3925 -0.678751 18.3242 4.83137 22.606C9.429 26.2209 15.8516 26.2209 20.4492 22.606C17.3257 20.1844 15.5358 16.5343 15.5709 12.6737Z" fill="#EB001B"/>
<path d="M40.805 12.6727C40.805 19.6569 35.1545 25.3074 28.1703 25.3074C25.3275 25.3074 22.59 24.3598 20.3789 22.605C25.8539 18.2881 26.8015 10.3212 22.5198 4.84622C21.888 4.039 21.1861 3.33707 20.3789 2.70534C25.8539 -1.61151 33.8208 -0.663909 38.1377 4.84622C39.8574 7.05729 40.805 9.8299 40.805 12.6727Z" fill="#F79E1B"/>
<path d="M39.6109 20.4992V20.078H39.7864V20.0078H39.3652V20.078H39.5407V20.4992H39.6109ZM40.4181 20.4992V20.0078H40.2777L40.1374 20.3588L39.997 20.0078H39.8917V20.4992H39.997V20.1482L40.1374 20.4641H40.2426L40.383 20.1482V20.5343L40.4181 20.4992Z" fill="#F79E1B"/>
</svg>
