<svg width="67" height="24" viewBox="0 0 67 24" fill="none" xmlns="http://www.w3.org/2000/svg">
<path fill-rule="evenodd" clip-rule="evenodd" d="M62.4102 9.17241C62.4102 8.43861 62.9605 7.85156 63.6576 7.85156C64.3547 7.85156 64.9051 8.43861 64.9051 9.17241C64.9051 9.90622 64.3547 10.4933 63.6576 10.4933C62.9972 10.4933 62.4102 9.90622 62.4102 9.17241ZM63.6576 10.163C64.1713 10.163 64.6116 9.72277 64.6116 9.17241C64.6116 8.62206 64.1713 8.18177 63.6576 8.18177C63.144 8.18177 62.7037 8.62206 62.7037 9.17241C62.7404 9.72277 63.144 10.163 63.6576 10.163ZM63.5109 9.75946H63.254V8.62206H63.731C63.8411 8.62206 63.9145 8.62206 64.0245 8.69544C64.0979 8.76882 64.1713 8.87889 64.1713 8.98896C64.1713 9.09903 64.0979 9.24579 63.9878 9.28248L64.1713 9.79615H63.8411L63.6576 9.35586H63.4742V9.75946H63.5109ZM63.5109 9.09903H63.6576C63.6943 9.09903 63.7677 9.09903 63.8044 9.06234C63.8411 9.02565 63.8778 8.98896 63.8778 8.91558C63.8778 8.87889 63.8411 8.80551 63.8044 8.80551C63.7677 8.76882 63.6943 8.76882 63.6576 8.76882H63.5109V9.09903Z" fill="#ED1C24"/>
<path fill-rule="evenodd" clip-rule="evenodd" d="M44.6528 0.513664L44.3226 2.71508C43.5888 2.31149 43.0384 2.16473 42.4514 2.16473C40.9104 2.16473 39.8097 3.74241 39.8097 5.98051C39.8097 7.5215 40.5435 8.47545 41.7543 8.47545C42.2679 8.47545 42.8183 8.292 43.5154 7.96178L43.1485 10.31C42.378 10.5301 41.901 10.6035 41.314 10.6035C39.0759 10.6035 37.6816 8.91573 37.6816 6.20065C37.6816 2.53163 39.6262 0 42.378 0C42.7449 0 43.0384 0.0366903 43.2953 0.110071L44.1391 0.330212C44.396 0.403593 44.4693 0.403593 44.6528 0.513664Z" fill="#ED1C24"/>
<path fill-rule="evenodd" clip-rule="evenodd" d="M37.7544 2.01789C37.681 2.01789 37.6076 1.9812 37.5342 1.9812C36.8371 1.9812 36.4702 2.3481 35.8098 3.33874L35.9933 2.09127H34.122L32.8379 10.3833H34.9292C35.663 5.32001 35.8832 4.43945 36.8738 4.43945C36.9472 4.43945 36.9472 4.43945 37.0206 4.43945C37.204 3.44881 37.4609 2.71501 37.7911 2.01789H37.7544Z" fill="#ED1C24"/>
<path fill-rule="evenodd" clip-rule="evenodd" d="M25.2804 10.2734C24.73 10.4568 24.253 10.5302 23.7761 10.5302C22.712 10.5302 22.125 9.8698 22.125 8.69571C22.125 8.47557 22.125 8.21873 22.1984 7.9619L22.3451 7.15472L22.4552 6.49429L23.3725 0.843994H25.4271L25.207 2.09146H26.271L25.9775 4.10943H24.9135L24.3631 7.55831C24.3264 7.70507 24.3264 7.81514 24.3264 7.88852C24.3264 8.32881 24.5466 8.51226 25.0235 8.51226C25.2804 8.51226 25.4271 8.47557 25.5739 8.43888L25.2804 10.2734Z" fill="#ED1C24"/>
<path fill-rule="evenodd" clip-rule="evenodd" d="M17.0982 4.69642C17.0982 5.76044 17.5752 6.45755 18.6759 7.0079C19.5198 7.4115 19.6298 7.55826 19.6298 7.92516C19.6298 8.43882 19.2629 8.69566 18.4557 8.69566C17.832 8.69566 17.245 8.58558 16.5845 8.36544L16.291 10.2733L16.4011 10.31L16.768 10.3834C16.8781 10.4201 17.0615 10.4201 17.3183 10.4568C17.832 10.4935 18.1989 10.5302 18.4557 10.5302C20.6205 10.5302 21.6478 9.6496 21.6478 7.74171C21.6478 6.60431 21.2442 5.94389 20.1802 5.43022C19.2996 5.02663 19.2262 4.91656 19.2262 4.54966C19.2262 4.10937 19.5564 3.85254 20.2536 3.85254C20.6572 3.85254 21.2075 3.88923 21.7579 3.96261L22.0147 2.05472C21.4643 1.94465 20.6572 1.90796 20.1802 1.90796C17.9054 1.90796 17.0982 3.19212 17.0982 4.69642Z" fill="#ED1C24"/>
<path fill-rule="evenodd" clip-rule="evenodd" d="M61.2365 10.3833H59.2552L59.3653 9.57612C58.7783 10.2365 58.1912 10.4934 57.4574 10.4934C55.9531 10.4934 54.9258 9.13584 54.9258 7.0445C54.9258 4.29273 56.4668 1.94455 58.3013 1.94455C59.1085 1.94455 59.7322 2.31145 60.2826 3.08195L60.7228 0.146729H62.7775L61.2365 10.3833ZM58.1545 8.43873C59.1085 8.43873 59.8056 7.30133 59.8056 5.65027C59.8056 4.58625 59.402 4.0359 58.7049 4.0359C57.7509 4.0359 57.0905 5.20998 57.0905 6.82435C57.0905 7.88837 57.4574 8.43873 58.1545 8.43873Z" fill="#ED1C24"/>
<path fill-rule="evenodd" clip-rule="evenodd" d="M31.8847 10.1998C31.1876 10.4199 30.4904 10.53 29.7566 10.53C27.4452 10.53 26.2344 9.24584 26.2344 6.82428C26.2344 3.96244 27.7754 1.87109 29.8667 1.87109C31.5912 1.87109 32.6919 3.04518 32.6919 4.87969C32.6919 5.50343 32.6185 6.09047 32.435 6.93435H28.2523C28.2523 7.04442 28.2156 7.1178 28.2156 7.19118C28.2156 8.14513 28.8394 8.65879 30.0502 8.65879C30.784 8.65879 31.4444 8.51203 32.2149 8.14513L31.8847 10.1998ZM30.7106 5.28329C30.7106 5.09984 30.7106 4.95308 30.7106 4.87969C30.7106 4.21927 30.3437 3.81568 29.7199 3.81568C29.0595 3.81568 28.5826 4.32934 28.3991 5.31998L30.7106 5.28329Z" fill="#ED1C24"/>
<path fill-rule="evenodd" clip-rule="evenodd" d="M8.73298 10.3837H6.67833L7.85242 2.53201L5.21072 10.3837H3.7798L3.59635 2.5687L2.34888 10.3837H0.404297L2.01867 0.183838H5.02727L5.10065 6.49456L7.11861 0.183838H10.3474L8.73298 10.3837Z" fill="#ED1C24"/>
<path fill-rule="evenodd" clip-rule="evenodd" d="M14.0885 6.67759C13.8684 6.6409 13.7583 6.6409 13.6115 6.6409C12.4375 6.6409 11.8504 7.08118 11.8504 7.92506C11.8504 8.43872 12.1439 8.76893 12.5842 8.76893C13.4648 8.76893 14.0518 7.92505 14.0885 6.67759ZM15.6295 10.3833H13.9051L13.9418 9.53943C13.4281 10.2365 12.731 10.5301 11.777 10.5301C10.6396 10.5301 9.86914 9.61281 9.86914 8.25527C9.86914 6.2373 11.2267 5.06322 13.5382 5.06322C13.7583 5.06322 14.0885 5.06322 14.382 5.1366C14.4554 4.87976 14.4554 4.733 14.4554 4.58624C14.4554 4.03589 14.0885 3.81575 13.1346 3.81575C12.5475 3.81575 11.8871 3.88913 11.4101 4.03589L11.1166 4.10927L10.9332 4.14596L11.2267 2.27476C12.254 1.94454 12.9511 1.83447 13.7216 1.83447C15.5194 1.83447 16.4734 2.67835 16.4734 4.25603C16.4734 4.65962 16.4367 4.98983 16.2899 5.90709L15.8497 8.84231L15.7763 9.35598L15.6662 9.86964L15.6295 10.1632V10.3833Z" fill="#ED1C24"/>
<path fill-rule="evenodd" clip-rule="evenodd" d="M48.2483 6.67759C48.0281 6.6409 47.918 6.6409 47.7713 6.6409C46.5972 6.6409 45.9735 7.08118 45.9735 7.92506C45.9735 8.43872 46.267 8.76893 46.7073 8.76893C47.5878 8.76893 48.2116 7.92505 48.2483 6.67759ZM49.7526 10.3833H48.0281L48.0648 9.53943C47.5511 10.2365 46.854 10.5301 45.9001 10.5301C44.7627 10.5301 43.9922 9.61281 43.9922 8.25527C43.9922 6.2373 45.3497 5.06322 47.6612 5.06322C47.8814 5.06322 48.2116 5.06322 48.5051 5.1366C48.5785 4.87976 48.5785 4.733 48.5785 4.58624C48.5785 4.03589 48.2116 3.81575 47.2576 3.81575C46.6706 3.81575 46.0102 3.88913 45.5332 4.03589L45.2397 4.10927L45.0562 4.14596L45.3497 2.27476C46.3771 1.94454 47.0742 1.83447 47.8447 1.83447C49.6425 1.83447 50.5964 2.67835 50.5964 4.25603C50.5964 4.65962 50.5597 4.98983 50.413 5.90709L49.9727 8.84231L49.8993 9.35598L49.8259 9.79626L49.7892 10.0898L49.7526 10.3833Z" fill="#ED1C24"/>
<path fill-rule="evenodd" clip-rule="evenodd" d="M55.5493 2.01789C55.4759 2.01789 55.4025 1.9812 55.3292 1.9812C54.6321 1.9812 54.2651 2.3481 53.6047 3.33874L53.7882 2.09127H51.917L50.6328 10.3833H52.7242C53.458 5.32001 53.6781 4.43945 54.6687 4.43945C54.7421 4.43945 54.7421 4.43945 54.8155 4.43945C54.999 3.44881 55.2558 2.71501 55.6227 2.01789H55.5493Z" fill="#ED1C24"/>
<path fill-rule="evenodd" clip-rule="evenodd" d="M46.8168 18.4552C46.8168 20.3264 46.2297 21.4638 45.3125 21.4638C44.652 21.5004 44.2484 20.73 44.2484 19.6292C44.2484 18.3084 44.8355 16.8041 45.7894 16.8041C46.5599 16.7674 46.8168 17.5746 46.8168 18.4552ZM48.8714 18.4918C48.8714 16.4005 47.8441 14.7861 45.8995 14.7861C43.6614 14.7861 42.2305 16.7674 42.2305 19.6659C42.2305 21.7573 43.0743 23.445 45.2024 23.445C47.3304 23.445 48.8714 21.9407 48.8714 18.4918Z" fill="#F7941D"/>
<path fill-rule="evenodd" clip-rule="evenodd" d="M42.8902 13.2818L42.56 15.4832C41.8629 15.0796 41.3493 14.9329 40.8356 14.9329C39.368 14.9329 38.3773 16.5105 38.3773 18.7486C38.3773 20.2896 39.0745 21.2436 40.1752 21.2436C40.6521 21.2436 41.2025 21.0968 41.8262 20.7299L41.496 23.0414C40.7622 23.2615 40.3219 23.3349 39.7716 23.3349C37.6802 23.3349 36.3594 21.6472 36.3594 18.9321C36.3594 15.2631 38.1572 12.7314 40.7255 12.7314C41.0557 12.7314 41.3493 12.7681 41.6061 12.8415L42.4133 13.0617C42.6701 13.1717 42.7068 13.2084 42.8902 13.2818Z" fill="#F7941D"/>
<path fill-rule="evenodd" clip-rule="evenodd" d="M30.0129 14.8228C29.9395 14.8228 29.9028 14.7861 29.8295 14.7861C29.2057 14.7861 28.8388 15.153 28.2518 16.1437L28.4352 14.8962H26.6741L25.5 23.1882H27.4446C28.105 18.0883 28.2885 17.2077 29.2057 17.2077C29.2791 17.2077 29.2791 17.2077 29.3525 17.2077C29.5359 16.2171 29.7561 15.4832 30.0863 14.7861L30.0129 14.8228Z" fill="#F7941D"/>
<path fill-rule="evenodd" clip-rule="evenodd" d="M55.4017 23.0781H53.5672L53.6772 22.2709C53.1269 22.8947 52.5765 23.1882 51.8794 23.1882C50.4485 23.1882 49.5312 21.8307 49.5312 19.7393C49.5312 16.9876 50.9989 14.6394 52.6866 14.6394C53.4571 14.6394 54.0075 15.0063 54.5578 15.7768L54.9981 12.8416H56.906L55.4017 23.0781ZM52.5032 21.1336C53.4204 21.1336 54.0442 19.9962 54.0442 18.3451C54.0442 17.2811 53.6772 16.7307 53.0168 16.7307C52.1363 16.7307 51.5125 17.8681 51.5125 19.5192C51.5125 20.5832 51.8794 21.1336 52.5032 21.1336Z" fill="#F7941D"/>
<path fill-rule="evenodd" clip-rule="evenodd" d="M11.8146 23.0413C11.1542 23.2615 10.4938 23.3715 9.83337 23.3715C7.66865 23.3715 6.53125 22.0874 6.53125 19.6658C6.53125 16.804 7.96217 14.7126 9.94344 14.7126C11.5578 14.7126 12.5485 15.8867 12.5485 17.7212C12.5485 18.345 12.4751 18.932 12.3283 19.7759H8.43914C8.43914 19.886 8.43914 19.9594 8.43914 20.0327C8.43914 20.9867 9.02619 21.5003 10.1636 21.5003C10.8607 21.5003 11.4844 21.3536 12.1816 20.9867L11.8146 23.0413ZM10.7139 18.1248C10.7139 17.9414 10.7139 17.7946 10.7139 17.6846C10.7139 17.0241 10.3837 16.6205 9.79668 16.6205C9.17295 16.6205 8.73267 17.1709 8.54921 18.1248H10.7139Z" fill="#F7941D"/>
<path fill-rule="evenodd" clip-rule="evenodd" d="M34.9279 23.0413C34.2675 23.2615 33.6071 23.3715 32.9467 23.3715C30.7819 23.3715 29.6445 22.0874 29.6445 19.6658C29.6445 16.804 31.0754 14.7126 33.0567 14.7126C34.6711 14.7126 35.6984 15.8867 35.6984 17.7212C35.6984 18.345 35.625 18.932 35.4416 19.7759H31.5157C31.5157 19.886 31.479 19.9594 31.479 20.0327C31.479 20.9867 32.0661 21.5003 33.1668 21.5003C33.8639 21.5003 34.4876 21.3536 35.1848 20.9867L34.9279 23.0413ZM33.8272 18.1248C33.8272 17.9414 33.8639 17.7946 33.8639 17.6846C33.8639 17.0241 33.5337 16.6205 32.9467 16.6205C32.3229 16.6205 31.8826 17.1709 31.6992 18.1248H33.8272Z" fill="#F7941D"/>
<path fill-rule="evenodd" clip-rule="evenodd" d="M62.0061 23.0413C61.3456 23.2615 60.6852 23.3715 60.0248 23.3715C57.8601 23.3715 56.7227 22.0874 56.7227 19.6658C56.7227 16.804 58.1536 14.7126 60.1348 14.7126C61.7492 14.7126 62.7399 15.8867 62.7399 17.7212C62.7399 18.345 62.6665 18.932 62.483 19.7759H58.6305C58.6305 19.886 58.6305 19.9594 58.6305 20.0327C58.6305 20.9867 59.2176 21.5003 60.355 21.5003C61.0521 21.5003 61.6758 21.3536 62.373 20.9867L62.0061 23.0413ZM60.942 18.1248C60.942 17.9414 60.942 17.7946 60.942 17.6846C60.942 17.0241 60.6118 16.6205 60.0248 16.6205C59.401 16.6205 58.9608 17.1709 58.7773 18.1248H60.942Z" fill="#F7941D"/>
<path fill-rule="evenodd" clip-rule="evenodd" d="M6.05389 15.1897C5.68699 14.9329 5.17333 14.7128 4.43952 14.7128C3.66903 14.7128 3.0086 14.8595 3.0086 15.7034C3.0086 17.171 5.87044 16.6206 5.87044 19.776C5.87044 22.6378 3.96255 23.4083 2.2748 23.4083C1.5043 23.4083 0.623734 23.1515 0 22.858L0.476973 20.73C0.880566 21.0969 1.65106 21.317 2.31149 21.317C2.93522 21.317 3.88917 21.1335 3.88917 20.0695C3.88917 18.3818 1.02733 19.0055 1.02733 16.0703C1.02733 13.3919 2.71508 12.5847 4.32945 12.5847C5.24671 12.5847 6.09058 12.7315 6.60425 13.0617L6.05389 15.1897Z" fill="#F7941D"/>
<path fill-rule="evenodd" clip-rule="evenodd" d="M17.5016 23.0413C17.098 23.2247 16.5843 23.3715 15.7772 23.3715C14.0894 23.3715 13.0254 21.6837 13.0254 19.5924C13.0254 16.8773 14.5664 14.7493 16.8045 14.7493C17.2815 14.7493 18.052 14.9694 18.639 15.2996L18.1987 17.2809C17.7584 17.0241 17.3182 16.8406 16.8779 16.8406C15.8505 16.8406 15.08 17.7946 15.08 19.4823C15.08 20.4729 15.6304 21.2801 16.4743 21.2801C16.9879 21.2801 17.3182 21.1701 17.7584 20.9132L17.5016 23.0413Z" fill="#F7941D"/>
<path fill-rule="evenodd" clip-rule="evenodd" d="M24.7668 20.9868C24.6567 21.6839 24.5833 22.3811 24.51 23.1515H22.6387L22.7855 21.794H22.7488C22.1618 22.7113 21.5747 23.335 20.5107 23.335C19.3366 23.335 18.7129 22.0875 18.7129 20.4732C18.7129 19.9228 18.7496 19.5926 18.8597 18.7487L19.3733 14.8962H21.4647L20.9143 18.7487C20.8409 19.1523 20.7675 19.5559 20.7675 19.9962C20.7675 20.4732 20.9877 20.9868 21.538 20.9501C22.3819 20.9501 22.8956 19.9228 23.0423 18.6753L23.6294 14.8962H25.684L24.7668 20.9868Z" fill="#F7941D"/>
<path fill-rule="evenodd" clip-rule="evenodd" d="M63.9502 23.0413H63.6567V21.647H63.1797V21.3535H64.4272V21.647H63.9502V23.0413Z" fill="#F7941D"/>
<path fill-rule="evenodd" clip-rule="evenodd" d="M66.0418 23.0413H65.7483V21.6103L65.4548 23.0413H65.1613L64.8677 21.6103V23.0413H64.5742V21.3535H65.0512L65.308 22.6744L65.6015 21.3535H66.0418V23.0413Z" fill="#F7941D"/>
</svg>
