<svg width="65" height="20" viewBox="0 0 65 20" fill="none" xmlns="http://www.w3.org/2000/svg">
<path fill-rule="evenodd" clip-rule="evenodd" d="M47.1891 0.725507C46.9991 2.18236 46.7457 3.57586 46.4923 4.90603C45.2255 4.52598 43.832 3.82923 41.8051 3.95591C40.6016 4.01925 39.1448 4.52598 39.1448 5.60278C39.1448 6.80627 41.1083 7.50302 42.1851 8.07309C44.1487 9.02321 46.3023 10.29 46.4923 12.887C46.619 14.8506 45.6689 16.6242 44.6554 17.5743C41.8684 20.2346 35.661 20.488 31.4805 18.7778C31.7338 17.3842 31.9872 15.9274 32.1772 14.4706C33.8241 15.1673 36.041 16.1174 38.5113 15.8007C39.6515 15.674 40.9817 15.0406 40.9817 13.8371C40.9183 12.4436 38.3213 11.6202 36.9912 10.8601C35.471 10.0367 33.6974 8.57982 33.6341 6.48956C33.5707 5.03271 34.1408 3.70255 34.8375 2.81577C36.9911 0.155438 42.5652 -0.794682 47.1891 0.725507Z" fill="white"/>
<path fill-rule="evenodd" clip-rule="evenodd" d="M22.8027 19.6012L26.0331 0.345459H31.2905L28.0601 19.6012H22.8027Z" fill="white"/>
<path fill-rule="evenodd" clip-rule="evenodd" d="M18.4322 0.345459C16.5953 4.58932 15.0751 9.14989 13.2382 13.3304L12.6682 10.7968L12.7315 11.2401C12.3515 9.90998 11.6547 8.64316 10.7679 7.50302L10.7046 7.43967C10.5779 7.24965 10.3879 7.05963 10.1979 6.86961C10.0712 6.74293 10.0078 6.61624 9.88115 6.48956C8.61433 5.09605 7.09414 3.89257 5.44727 2.94245L10.1345 19.5379H15.7719C18.4322 13.077 21.2826 6.80626 23.9429 0.345459C22.106 0.345459 20.2691 0.345459 18.4322 0.345459Z" fill="white"/>
<path fill-rule="evenodd" clip-rule="evenodd" d="M8.55107 0.345459H0V0.788846C4.94062 1.73896 11.1481 5.91949 12.7949 11.2401L10.958 2.2457C10.7047 0.852189 9.69121 0.345459 8.55107 0.345459Z" fill="white"/>
<path fill-rule="evenodd" clip-rule="evenodd" d="M64.8623 19.6011C63.2788 19.6011 61.6319 19.6011 60.0484 19.6011C59.7316 18.7143 59.6683 17.5741 59.3516 16.624C57.198 16.624 54.9811 16.624 52.8275 16.624L51.624 19.6011C49.7871 19.6011 47.9502 19.6011 46.1133 19.6011L53.2708 3.13234C53.5875 2.43558 54.1576 1.42212 54.411 0.978735C54.791 0.345323 56.1845 0.281982 56.7546 0.281982H60.7451L64.8623 19.6011ZM56.8813 5.66599L54.221 12.8235H58.5282L56.8813 5.66599Z" fill="white"/>
</svg>
