<svg width="53" height="31" viewBox="0 0 53 31" fill="none" xmlns="http://www.w3.org/2000/svg">
<path fill-rule="evenodd" clip-rule="evenodd" d="M45.3845 19.9651C45.3073 20.5568 45.2044 21.1229 45.1015 21.6632C44.5869 21.5088 44.0209 21.2258 43.1976 21.2772C42.7088 21.303 42.117 21.5088 42.117 21.9462C42.117 22.435 42.9146 22.718 43.352 22.9496C44.1495 23.3355 45.0243 23.8501 45.1015 24.9049C45.1529 25.7025 44.767 26.4229 44.3554 26.8088C43.2233 27.8894 40.702 27.9923 39.0039 27.2976C39.1068 26.7316 39.2097 26.1399 39.2869 25.5481C39.9558 25.8311 40.8563 26.2171 41.8597 26.0884C42.3228 26.037 42.8631 25.7797 42.8631 25.2908C42.8374 24.7248 41.7826 24.3904 41.2423 24.0816C40.6248 23.7471 39.9044 23.1554 39.8787 22.3064C39.8529 21.7146 40.0845 21.1743 40.3675 20.8141C41.2423 19.7335 43.5063 19.3476 45.3845 19.9651Z" fill="white"/>
<path fill-rule="evenodd" clip-rule="evenodd" d="M25.0342 8.85059H27.324L25.909 17.7268H23.6191L25.0342 8.85059Z" fill="white"/>
<path fill-rule="evenodd" clip-rule="evenodd" d="M17.1104 8.85059H20.6094C22.8478 8.85059 23.4138 10.137 23.1822 11.655C22.9764 12.9414 22.0502 13.7904 20.8667 14.0991L23.0793 17.7268H20.1978L18.5254 14.2278L17.9594 17.7268H15.6953L17.1104 8.85059ZM19.1172 10.6258L18.757 12.8642H19.4259C20.0691 12.8642 20.6866 12.3754 20.7895 11.7579C20.8924 11.1404 20.455 10.6516 19.8118 10.6516H19.1172V10.6258Z" fill="white"/>
<path fill-rule="evenodd" clip-rule="evenodd" d="M35.4792 8.85059H37.769L36.3797 17.7268H34.0898L35.4792 8.85059Z" fill="white"/>
<path fill-rule="evenodd" clip-rule="evenodd" d="M39.5186 8.85059H44.5356L44.2268 10.7802H41.4996L41.2681 12.2982H43.8666L43.5579 14.2278H40.9593L40.7021 15.7972H43.4293L43.1205 17.7268H38.1035L39.5186 8.85059Z" fill="white"/>
<path fill-rule="evenodd" clip-rule="evenodd" d="M10.7295 8.85059H15.7465L15.4378 10.7802H12.7106L12.479 12.2982H15.0776L14.7688 14.2278H12.1703L11.913 15.7972H14.6402L14.3315 17.7268H9.31445L10.7295 8.85059Z" fill="white"/>
<path fill-rule="evenodd" clip-rule="evenodd" d="M29.0475 8.85059H34.1417L33.833 10.7802H31.0286L30.797 12.2982H33.3441L33.0354 14.2278H30.4883L29.948 17.7268H27.6582L29.0475 8.85059Z" fill="white"/>
<path fill-rule="evenodd" clip-rule="evenodd" d="M45.8737 8.85059H48.8582C52.4087 8.85059 53.232 11.5263 52.949 13.3016C52.563 15.7972 50.3247 17.7268 47.4689 17.7268H44.4844L45.8737 8.85059ZM47.8548 10.7802C48.0091 10.7802 48.1892 10.7802 48.3179 10.7802C50.0674 10.7802 50.7621 12.0152 50.5562 13.1987C50.299 14.7938 49.1669 15.7972 47.6489 15.7972C47.4431 15.7972 47.263 15.7972 47.0315 15.7972L47.8548 10.7802Z" fill="white"/>
<path fill-rule="evenodd" clip-rule="evenodd" d="M0 7.64128H4.24516L4.75972 14.0991C7.53837 9.23643 10.3942 4.57962 13.25 0H14.6394C11.6034 5.86603 8.59322 11.7578 5.68594 17.7267H2.59855L1.8267 10.6258C1.64661 8.85051 1.28641 8.10439 0 7.92429V7.64128Z" fill="white"/>
<path fill-rule="evenodd" clip-rule="evenodd" d="M1.5957 3.98784L5.22338 5.50581L5.53212 9.51941H5.7894L9.05689 3.98784V3.70483H1.5957V3.98784Z" fill="white"/>
<path fill-rule="evenodd" clip-rule="evenodd" d="M18.2927 24.0817C18.833 24.0817 19.2189 24.5705 19.116 25.2137C19.0388 25.8312 18.5243 26.32 17.9583 26.32C17.418 26.32 17.032 25.8312 17.135 25.2137C17.2121 24.5962 17.7524 24.0817 18.2927 24.0817ZM16.4403 19.8108H17.9325L17.4437 23.3098C17.8554 22.8982 18.3956 22.6409 18.9617 22.6409C20.1452 22.6409 20.917 23.7987 20.7112 25.188C20.5054 26.603 19.3733 27.7351 18.1898 27.7351C17.5981 27.7351 17.1864 27.4778 16.9034 27.0147L16.8262 27.5807H15.334L16.4403 19.8108Z" fill="white"/>
<path fill-rule="evenodd" clip-rule="evenodd" d="M20.8137 22.7695H22.5889L23.3865 25.2652L24.9302 22.7695H26.654L22.1515 30.0249H20.4277L22.3316 26.9632L20.8137 22.7695Z" fill="white"/>
<path fill-rule="evenodd" clip-rule="evenodd" d="M35.4785 27.6322L36.7907 19.8108H38.9261L37.614 27.6322H35.4785Z" fill="white"/>
<path fill-rule="evenodd" clip-rule="evenodd" d="M33.704 19.8108C32.9579 21.5346 32.3404 23.387 31.5943 25.0851L31.3627 24.0559L31.3884 24.236C31.2341 23.6958 30.9511 23.1812 30.5909 22.7181L30.5651 22.6924C30.5137 22.6152 30.4365 22.538 30.3593 22.4608C30.3078 22.4093 30.2821 22.3579 30.2307 22.3064C29.7161 21.7404 29.0986 21.2516 28.4297 20.8656L30.3336 27.6064H32.6234C33.704 24.9822 34.8617 22.4351 35.9423 19.8108C35.1962 19.8108 34.4501 19.8108 33.704 19.8108Z" fill="white"/>
<path fill-rule="evenodd" clip-rule="evenodd" d="M29.6901 19.8108H26.2168V19.9909C28.2236 20.3768 30.745 22.0749 31.4139 24.236L30.6678 20.5826C30.5649 20.0166 30.1532 19.8108 29.6901 19.8108Z" fill="white"/>
<path fill-rule="evenodd" clip-rule="evenodd" d="M52.5628 27.632C51.9196 27.632 51.2507 27.632 50.6075 27.632C50.4788 27.2718 50.4531 26.8087 50.3245 26.4228C49.4497 26.4228 48.5492 26.4228 47.6745 26.4228L47.1856 27.632C46.4395 27.632 45.6934 27.632 44.9473 27.632L47.8546 20.9427C47.9832 20.6597 48.2148 20.248 48.3177 20.0679C48.472 19.8106 49.0381 19.7849 49.2696 19.7849H50.8905L52.5628 27.632ZM49.3211 21.9718L48.2405 24.8791H49.99L49.3211 21.9718Z" fill="white"/>
</svg>
