<svg width="145" height="130" viewBox="0 0 145 130" fill="none" xmlns="http://www.w3.org/2000/svg">
<mask id="path-1-inside-1_13211_53769" fill="white">
<path fill-rule="evenodd" clip-rule="evenodd" d="M47 0C40.3726 0 35 5.37258 35 12V50L-3 50C-9.62742 50 -15 55.3726 -15 62V98C-15 104.627 -9.62742 110 -3 110H35V148C35 154.627 40.3726 160 47 160H83C89.6274 160 95 154.627 95 148V110H133C139.627 110 145 104.627 145 98V62C145 55.3726 139.627 50 133 50L95 50V12C95 5.37258 89.6274 0 83 0H47Z"/>
</mask>
<path fill-rule="evenodd" clip-rule="evenodd" d="M47 0C40.3726 0 35 5.37258 35 12V50L-3 50C-9.62742 50 -15 55.3726 -15 62V98C-15 104.627 -9.62742 110 -3 110H35V148C35 154.627 40.3726 160 47 160H83C89.6274 160 95 154.627 95 148V110H133C139.627 110 145 104.627 145 98V62C145 55.3726 139.627 50 133 50L95 50V12C95 5.37258 89.6274 0 83 0H47Z" fill="white"/>
<path d="M35 50V57H42V50H35ZM-3 50V57H-3L-3 50ZM35 110H42V103H35V110ZM95 110V103H88V110H95ZM133 50V43V50ZM95 50H88V57H95V50ZM42 12C42 9.23857 44.2386 7 47 7V-7C36.5066 -7 28 1.50659 28 12H42ZM42 50V12H28V50H42ZM-3 57L35 57V43L-3 43L-3 57ZM-8 62C-8 59.2386 -5.76142 57 -3 57V43C-13.4934 43 -22 51.5066 -22 62H-8ZM-8 98V62H-22V98H-8ZM-3 103C-5.76142 103 -8 100.761 -8 98H-22C-22 108.493 -13.4934 117 -3 117V103ZM35 103H-3V117H35V103ZM42 148V110H28V148H42ZM47 153C44.2386 153 42 150.761 42 148H28C28 158.493 36.5066 167 47 167V153ZM83 153H47V167H83V153ZM88 148C88 150.761 85.7614 153 83 153V167C93.4934 167 102 158.493 102 148H88ZM88 110V148H102V110H88ZM133 103H95V117H133V103ZM138 98C138 100.761 135.761 103 133 103V117C143.493 117 152 108.493 152 98H138ZM138 62V98H152V62H138ZM133 57C135.761 57 138 59.2386 138 62H152C152 51.5066 143.493 43 133 43V57ZM95 57L133 57V43L95 43V57ZM88 12V50H102V12H88ZM83 7C85.7614 7 88 9.23857 88 12H102C102 1.50659 93.4934 -7 83 -7V7ZM47 7H83V-7H47V7Z" fill="#3E3E3E" mask="url(#path-1-inside-1_13211_53769)"/>
</svg>
