<svg width="720" height="261" viewBox="0 0 720 261" fill="none" xmlns="http://www.w3.org/2000/svg">
<mask id="mask0" mask-type="alpha" maskUnits="userSpaceOnUse" x="0" y="0" width="720" height="261">
<rect width="720" height="260" transform="matrix(-1 0 0 1 720 0.64502)" fill="url(#paint0_linear)"/>
</mask>
<g mask="url(#mask0)">
<g opacity="0.4">
<path d="M106.204 281.785L93.821 297.468L241.424 413.101L292.502 347.878L248.421 313.275L359.038 263.064L372.992 245.3L222.779 127.548L171.701 192.77L223.992 233.833L106.204 281.785Z" fill="#FFBA09"/>
<path d="M621 155.645C621 206.455 662.19 247.645 713 247.645C763.81 247.645 805 206.455 805 155.645C805 104.835 763.81 63.645 713 63.645C662.19 63.645 621 104.835 621 155.645Z" fill="#FFBA09"/>
<path d="M285 25.1449C285 113.234 356.634 184.645 445 184.645C533.366 184.645 605 113.234 605 25.1449C605 -62.9445 533.366 -134.355 445 -134.355C356.634 -134.355 285 -62.9445 285 25.1449Z" fill="#FFBA09"/>
<path d="M210.641 -43.739C218.986 -35.3939 225.606 -25.4868 230.122 -14.5834C234.638 -3.67997 236.963 8.00623 236.963 19.808C236.963 31.6097 234.638 43.2959 230.122 54.1993C225.606 65.1028 218.986 75.0098 210.641 83.3549C202.296 91.7 192.389 98.3197 181.485 102.836C170.582 107.352 158.896 109.677 147.094 109.677C135.292 109.677 123.606 107.352 112.703 102.836C101.799 98.3197 91.8921 91.7 83.547 83.3549L147.094 19.808L210.641 -43.739Z" fill="#FFBA09"/>
</g>
</g>
<defs>
<linearGradient id="paint0_linear" x1="783.007" y1="3.19388e-06" x2="586.343" y2="500.3" gradientUnits="userSpaceOnUse">
<stop stop-color="#FFDF3A"/>
<stop offset="1" stop-color="#FEC40E"/>
</linearGradient>
</defs>
</svg>
